<svg width="16" height="16" viewBox="0 0 16 16" fill="none" xmlns="http://www.w3.org/2000/svg">
<path d="M8.00004 14.6667C7.08893 14.6667 6.22782 14.4917 5.41671 14.1417C4.6056 13.7917 3.89726 13.3139 3.29171 12.7084C2.68615 12.1028 2.20837 11.3945 1.85837 10.5834C1.50837 9.77226 1.33337 8.91115 1.33337 8.00004C1.33337 7.07782 1.50837 6.21393 1.85837 5.40837C2.20837 4.60282 2.68615 3.89726 3.29171 3.29171C3.89726 2.68615 4.6056 2.20837 5.41671 1.85837C6.22782 1.50837 7.08893 1.33337 8.00004 1.33337C8.92226 1.33337 9.78615 1.50837 10.5917 1.85837C11.3973 2.20837 12.1028 2.68615 12.7084 3.29171C13.3139 3.89726 13.7917 4.60282 14.1417 5.40837C14.4917 6.21393 14.6667 7.07782 14.6667 8.00004C14.6667 8.91115 14.4917 9.77226 14.1417 10.5834C13.7917 11.3945 13.3139 12.1028 12.7084 12.7084C12.1028 13.3139 11.3973 13.7917 10.5917 14.1417C9.78615 14.4917 8.92226 14.6667 8.00004 14.6667ZM8.00004 13.3C8.28893 12.9 8.53893 12.4834 8.75004 12.05C8.96115 11.6167 9.13337 11.1556 9.26671 10.6667H6.73337C6.86671 11.1556 7.03893 11.6167 7.25004 12.05C7.46115 12.4834 7.71115 12.9 8.00004 13.3ZM6.26671 13.0334C6.06671 12.6667 5.89171 12.2862 5.74171 11.8917C5.59171 11.4973 5.46671 11.0889 5.36671 10.6667H3.40004C3.72226 11.2223 4.12504 11.7056 4.60837 12.1167C5.09171 12.5278 5.64448 12.8334 6.26671 13.0334ZM9.73337 13.0334C10.3556 12.8334 10.9084 12.5278 11.3917 12.1167C11.875 11.7056 12.2778 11.2223 12.6 10.6667H10.6334C10.5334 11.0889 10.4084 11.4973 10.2584 11.8917C10.1084 12.2862 9.93337 12.6667 9.73337 13.0334ZM2.83337 9.33337H5.10004C5.06671 9.11115 5.04171 8.89171 5.02504 8.67504C5.00837 8.45837 5.00004 8.23337 5.00004 8.00004C5.00004 7.76671 5.00837 7.54171 5.02504 7.32504C5.04171 7.10837 5.06671 6.88893 5.10004 6.66671H2.83337C2.77782 6.88893 2.73615 7.10837 2.70837 7.32504C2.6806 7.54171 2.66671 7.76671 2.66671 8.00004C2.66671 8.23337 2.6806 8.45837 2.70837 8.67504C2.73615 8.89171 2.77782 9.11115 2.83337 9.33337ZM6.43337 9.33337H9.56671C9.60004 9.11115 9.62504 8.89171 9.64171 8.67504C9.65837 8.45837 9.66671 8.23337 9.66671 8.00004C9.66671 7.76671 9.65837 7.54171 9.64171 7.32504C9.62504 7.10837 9.60004 6.88893 9.56671 6.66671H6.43337C6.40004 6.88893 6.37504 7.10837 6.35837 7.32504C6.34171 7.54171 6.33337 7.76671 6.33337 8.00004C6.33337 8.23337 6.34171 8.45837 6.35837 8.67504C6.37504 8.89171 6.40004 9.11115 6.43337 9.33337ZM10.9 9.33337H13.1667C13.2223 9.11115 13.2639 8.89171 13.2917 8.67504C13.3195 8.45837 13.3334 8.23337 13.3334 8.00004C13.3334 7.76671 13.3195 7.54171 13.2917 7.32504C13.2639 7.10837 13.2223 6.88893 13.1667 6.66671H10.9C10.9334 6.88893 10.9584 7.10837 10.975 7.32504C10.9917 7.54171 11 7.76671 11 8.00004C11 8.23337 10.9917 8.45837 10.975 8.67504C10.9584 8.89171 10.9334 9.11115 10.9 9.33337ZM10.6334 5.33337H12.6C12.2778 4.77782 11.875 4.29448 11.3917 3.88337C10.9084 3.47226 10.3556 3.16671 9.73337 2.96671C9.93337 3.33337 10.1084 3.71393 10.2584 4.10837C10.4084 4.50282 10.5334 4.91115 10.6334 5.33337ZM6.73337 5.33337H9.26671C9.13337 4.84448 8.96115 4.38337 8.75004 3.95004C8.53893 3.51671 8.28893 3.10004 8.00004 2.70004C7.71115 3.10004 7.46115 3.51671 7.25004 3.95004C7.03893 4.38337 6.86671 4.84448 6.73337 5.33337ZM3.40004 5.33337H5.36671C5.46671 4.91115 5.59171 4.50282 5.74171 4.10837C5.89171 3.71393 6.06671 3.33337 6.26671 2.96671C5.64448 3.16671 5.09171 3.47226 4.60837 3.88337C4.12504 4.29448 3.72226 4.77782 3.40004 5.33337Z" fill="#252525"/>
</svg>
